<?xml version="1.0" encoding="utf-8"?>
<!-- Generator: Adobe Illustrator 22.0.0, SVG Export Plug-In . SVG Version: 6.00 Build 0)  -->
<svg version="1.1" id="图层_1" xmlns="https://www.w3.org/2000/svg" xmlns:xlink="https://www.w3.org/1999/xlink" x="0px" y="0px"
	 viewBox="0 0 528.6 190.4" style="enable-background:new 0 0 528.6 190.4;" xml:space="preserve">
<style type="text/css">
	.st0{fill:url(#SVGID_1_);}
	.st1{fill:url(#SVGID_2_);}
	.st2{fill:url(#SVGID_3_);}
	.st3{fill:url(#SVGID_4_);}
	.st4{fill:url(#SVGID_5_);}
	.st5{fill:url(#SVGID_6_);}
	.st6{fill:url(#SVGID_7_);}
	.st7{fill:url(#SVGID_8_);}
	.st8{fill:url(#SVGID_9_);}
	.st9{fill:url(#SVGID_10_);}
	.st10{fill:#1890FF;}
	.st11{font-family:'MF-JingYue(Noncommercial)-Regular';}
	.st12{font-size:102.7762px;}
	.st13{fill:#666666;}
	.st14{font-family:'SourceHanSansSC-Regular-GBpc-EUC-H';}
	.st15{font-size:35.6311px;}
</style>
<g>
	<g>
		<linearGradient id="SVGID_1_" gradientUnits="userSpaceOnUse" x1="108.2496" y1="126.0555" x2="121.8233" y2="126.0555">
			<stop  offset="0" style="stop-color:#29CDFF"/>
			<stop  offset="0.3786" style="stop-color:#148EFF"/>
			<stop  offset="1" style="stop-color:#0A60FF"/>
		</linearGradient>
		<path class="st0" d="M108.2,133.4c4.7-0.3,9.2-1,13.6-1.8l-6.3-12.9L108.2,133.4z"/>
		<linearGradient id="SVGID_2_" gradientUnits="userSpaceOnUse" x1="18.4494" y1="71.8234" x2="182.1993" y2="71.8234">
			<stop  offset="0" style="stop-color:#29CDFF"/>
			<stop  offset="0.3786" style="stop-color:#148EFF"/>
			<stop  offset="1" style="stop-color:#0A60FF"/>
		</linearGradient>
		<path class="st1" d="M100.3,12c-45.2,0-81.9,27.3-81.9,60.9c0,28.2,25.9,52,61,58.9L65.3,103C62,96.3,62.8,86.5,67,81.2
			s10.4-4.1,13.7,2.6l13.6,27.6l13-26.4c0.6-1.4,1.3-2.8,2.2-3.9h0c1.7-2.1,3.7-3.2,5.7-3.3c0.1,0,0.2,0,0.4,0c0.1,0,0.2,0,0.4,0
			c2,0.1,4,1.2,5.7,3.3c0.9,1.1,1.6,2.4,2.2,3.9l13,26.4l13.6-27.6c3.3-6.7,9.5-7.9,13.7-2.6c4.2,5.3,5,15.1,1.6,21.9l-5.6,11.4
			c13.7-10.9,22.2-25.5,22.2-41.6C182.2,39.2,145.5,12,100.3,12z"/>
	</g>
	<linearGradient id="SVGID_3_" gradientUnits="userSpaceOnUse" x1="58.8143" y1="47.0187" x2="190.3207" y2="47.0187">
		<stop  offset="0" style="stop-color:#4285EB"/>
		<stop  offset="1" style="stop-color:#2EC7FF"/>
	</linearGradient>
	<path class="st2" d="M190.1,36.4c-3.2-19.6-35.1-30.7-71.3-24.8c-36.2,5.9-62.9,26.5-59.7,46.1C61.6,73,81.7,83.2,107.7,84
		c0.5-1,1.1-2,1.7-2.8h0c1.7-2.1,3.7-3.2,5.7-3.3c0.1,0,0.2,0,0.4,0c0.1,0,0.2,0,0.4,0c2,0.1,4,1.2,5.7,3.3c0.5,0.7,1,1.4,1.4,2.3
		c2.4-0.2,4.9-0.6,7.3-1C166.5,76.6,193.2,56,190.1,36.4z"/>
	<linearGradient id="SVGID_4_" gradientUnits="userSpaceOnUse" x1="0" y1="105.1397" x2="142.2553" y2="105.1397">
		<stop  offset="0" style="stop-color:#29CDFF"/>
		<stop  offset="0.3786" style="stop-color:#148EFF"/>
		<stop  offset="1" style="stop-color:#0A60FF"/>
	</linearGradient>
	<path class="st3" d="M138.5,151.9c-0.1,0-0.2,0.1-0.3,0.1c-0.2,0-0.4,0.1-0.6,0.1c-0.1,0-0.3,0-0.4,0c-0.2,0-0.3,0-0.5,0
		c-0.2,0-0.3,0-0.5,0c-0.1,0-0.3,0-0.4,0c-0.2,0-0.4-0.1-0.6-0.1c-0.1,0-0.2-0.1-0.3-0.1c-0.2-0.1-0.5-0.1-0.7-0.2
		c-0.1,0-0.1,0-0.2-0.1c-1.9-0.9-3.7-2.6-5.1-5.4l-13.5-27.5L102,146.2c-1.3,2.7-3.1,4.5-5.1,5.4c-0.1,0-0.1,0-0.2,0.1
		c-0.2,0.1-0.5,0.2-0.7,0.2c-0.1,0-0.2,0.1-0.3,0.1c-0.2,0-0.4,0.1-0.6,0.1c-0.1,0-0.3,0-0.4,0c-0.2,0-0.3,0-0.5,0
		c-0.2,0-0.3,0-0.5,0c-0.1,0-0.3,0-0.4,0c-0.2,0-0.4-0.1-0.6-0.1c-0.1,0-0.2-0.1-0.3-0.1c-0.2-0.1-0.5-0.1-0.7-0.2
		c-0.1,0-0.1,0-0.2-0.1c-1.9-0.9-3.7-2.6-5.1-5.4l-21.2-43.2C62,96.3,62.8,86.5,67,81.2s10.4-4.1,13.7,2.6l13.6,27.6l13-26.4
		c0.6-1.4,1.3-2.8,2.2-3.9h0c1.7-2.1,3.7-3.2,5.7-3.3c0.1,0,0.2,0,0.4,0c0.1,0,0.2,0,0.4,0c2,0.1,4,1.2,5.7,3.3
		c0.9,1.1,1.6,2.4,2.2,3.9l13,26.4l5.5-11.2c-6.9-15.7-20-30.9-37.7-42.4c-37.2-24-81-22.3-97.9,3.8s-0.4,66.8,36.9,90.8
		c35.7,23,77.5,22.4,95.7-0.8C138.9,151.8,138.7,151.8,138.5,151.9z"/>
	<linearGradient id="SVGID_5_" gradientUnits="userSpaceOnUse" x1="33.7195" y1="147.2478" x2="88.6698" y2="147.2478">
		<stop  offset="0" style="stop-color:#FA8E7D"/>
		<stop  offset="0.5126" style="stop-color:#F74A5C"/>
		<stop  offset="1" style="stop-color:#F51D2C"/>
	</linearGradient>
	<path class="st4" d="M86.6,146.2l-16.7-33.9L38,151.1c-6.6,8.1-5.5,20.1,2.6,26.7v0c8.1,6.6,20.1,5.5,26.7-2.6l21.3-25.9
		C87.9,148.5,87.2,147.5,86.6,146.2z"/>
	<linearGradient id="SVGID_6_" gradientUnits="userSpaceOnUse" x1="7.9276" y1="37.9484" x2="19.9185" y2="37.9484">
		<stop  offset="0" style="stop-color:#FA8E7D"/>
		<stop  offset="0.5126" style="stop-color:#F74A5C"/>
		<stop  offset="1" style="stop-color:#F51D2C"/>
	</linearGradient>
	<path class="st5" d="M10,33.8c0,0-4.5,2.8-0.4,7.8c0,0,6.6,2.1,10.3-1.8C19.9,39.8,18,33.5,10,33.8z"/>
	<linearGradient id="SVGID_7_" gradientUnits="userSpaceOnUse" x1="10.3599" y1="26.8886" x2="26.7226" y2="26.8886">
		<stop  offset="0" style="stop-color:#29CDFF"/>
		<stop  offset="0.3786" style="stop-color:#148EFF"/>
		<stop  offset="1" style="stop-color:#0A60FF"/>
	</linearGradient>
	<path class="st6" d="M12.5,20.3c0,0-9.9,9.5,12.4,13.5c0,0,3.5,1.6,0.8-2.7C25.7,31,19,16.7,12.5,20.3z"/>
	<linearGradient id="SVGID_8_" gradientUnits="userSpaceOnUse" x1="156.5258" y1="148.6432" x2="178.9333" y2="148.6432">
		<stop  offset="0" style="stop-color:#FA8E7D"/>
		<stop  offset="0.5126" style="stop-color:#F74A5C"/>
		<stop  offset="1" style="stop-color:#F51D2C"/>
	</linearGradient>
	<path class="st7" d="M156.5,138.2c0,0,6.8,25.6,21.6,20.1C178.2,158.3,185.3,145.9,156.5,138.2z"/>
	<linearGradient id="SVGID_9_" gradientUnits="userSpaceOnUse" x1="164.1508" y1="135.1487" x2="176.5055" y2="135.1487">
		<stop  offset="0" style="stop-color:#29CDFF"/>
		<stop  offset="0.3786" style="stop-color:#148EFF"/>
		<stop  offset="1" style="stop-color:#0A60FF"/>
	</linearGradient>
	<path class="st8" d="M164.2,132.7c0,0,2.6,7.8,11.5,5.5c0,0,4.1-5.4-5.8-6.5C169.9,131.7,165.9,132.3,164.2,132.7z"/>
	<linearGradient id="SVGID_10_" gradientUnits="userSpaceOnUse" x1="73.6268" y1="172.635" x2="80.1268" y2="172.635">
		<stop  offset="0" style="stop-color:#4285EB"/>
		<stop  offset="1" style="stop-color:#2EC7FF"/>
	</linearGradient>
	<circle class="st9" cx="76.9" cy="172.6" r="3.3"/>
</g>
<text transform="matrix(1 0 0 1 220.3194 117.8176)" class="st10 st11 st12">唯品秀</text>
<text transform="matrix(1 0 0 1 223.5699 166.4324)" class="st13 st14 st15">www.weipxiu.com</text>
</svg>
